<svg xmlns="http://www.w3.org/2000/svg" width="864" height="213.594" viewBox="0 0 864 213.594">
  <metadata><?xpacket begin="﻿" id="W5M0MpCehiHzreSzNTczkc9d"?>
<x:xmpmeta xmlns:x="adobe:ns:meta/" x:xmptk="Adobe XMP Core 5.6-c138 79.159824, 2016/09/14-01:09:01        ">
   <rdf:RDF xmlns:rdf="http://www.w3.org/1999/02/22-rdf-syntax-ns#">
      <rdf:Description rdf:about=""/>
   </rdf:RDF>
</x:xmpmeta>
                                                                                                    
                                                                                                    
                                                                                                    
                                                                                                    
                                                                                                    
                                                                                                    
                                                                                                    
                                                                                                    
                                                                                                    
                                                                                                    
                                                                                                    
                                                                                                    
                                                                                                    
                                                                                                    
                                                                                                    
                                                                                                    
                                                                                                    
                                                                                                    
                                                                                                    
                                                                                                    
                           
<?xpacket end="w"?></metadata>
<defs>
    <style>
      .cls-1 {
        fill: #fa625f;
        fill-rule: evenodd;
      }
    </style>
  </defs>
  <path id="STOP" class="cls-1" d="M128.385,28.471q-40.2,0-66.45,16.05t-26.25,49.95q0,23.1,12.3,36.6a70.307,70.307,0,0,0,28.8,19.35q16.5,5.85,41.7,11.25,20.7,4.2,29.85,7.95t9.15,11.25q0,8.4-8.25,11.1t-20.85,2.7q-17.1,0-25.2-5.25t-8.1-20.85h-62.7q0,41.1,26.85,57.3t75.15,16.2q41.4,0,66.15-17.7t24.75-54.3q-0.3-21.6-12.3-34.2a69.818,69.818,0,0,0-28.05-18.15q-16.053-5.547-40.95-10.65-21.3-4.2-30.9-8.1t-9.6-12q0-5.7,7.05-9.6t20.25-3.9q13.5,0,20.1,6a19.444,19.444,0,0,1,6.6,15v1.2h62.1v-3.6q-0.6-31.5-26.1-47.55t-65.1-16.05h0Zm316.2,56.4v-52.8H242.98v52.8h67.8v153.6h66.3V84.871h67.5Zm122.7-56.4q-53.4,0-82.35,27.15t-28.95,79.65q0,52.5,28.95,79.65t82.35,27.15q53.4,0,82.5-27.3t29.1-79.5q0-52.2-29.1-79.5t-82.5-27.3h0Zm0,49.5q21.3,0,32.55,12.9t11.25,34.8v19.2q0,21.9-11.25,34.8t-32.55,12.9q-21.3,0-32.4-12.9t-11.1-34.8v-19.2q0-21.9,11.1-34.8t32.4-12.9h0Zm263.1-45.9h-115.8v206.4h66.3v-66.6h49.5q19.2,0,34.2-8.85a61.855,61.855,0,0,0,23.4-24.45,72.234,72.234,0,0,0,8.4-34.8v-3.9a71.4,71.4,0,0,0-8.4-34.65,62.176,62.176,0,0,0-23.4-24.3q-15-8.845-34.2-8.85h0Zm-49.5,48.9h27.3q10.5,0,15.75,5.25t5.25,14.85v2.4q0,9.3-5.25,14.7t-15.75,5.4h-27.3v-42.6Z" transform="translate(-32.375 -28.469)"/>
</svg>
