<svg xmlns="http://www.w3.org/2000/svg" width="771" height="213.594" viewBox="0 0 771 213.594">
  <metadata><?xpacket begin="﻿" id="W5M0MpCehiHzreSzNTczkc9d"?>
<x:xmpmeta xmlns:x="adobe:ns:meta/" x:xmptk="Adobe XMP Core 5.6-c138 79.159824, 2016/09/14-01:09:01        ">
   <rdf:RDF xmlns:rdf="http://www.w3.org/1999/02/22-rdf-syntax-ns#">
      <rdf:Description rdf:about=""/>
   </rdf:RDF>
</x:xmpmeta>
                                                                                                    
                                                                                                    
                                                                                                    
                                                                                                    
                                                                                                    
                                                                                                    
                                                                                                    
                                                                                                    
                                                                                                    
                                                                                                    
                                                                                                    
                                                                                                    
                                                                                                    
                                                                                                    
                                                                                                    
                                                                                                    
                                                                                                    
                                                                                                    
                                                                                                    
                                                                                                    
                           
<?xpacket end="w"?></metadata>
<defs>
    <style>
      .cls-1 {
        fill: #5ffa6c;
        fill-rule: evenodd;
      }
    </style>
  </defs>
  <path id="NOW" class="cls-1" d="M247.185,238.471V32.071h-60.9v101.7l-86.7-101.7h-57.9v206.4h60.9v-100.2l86.7,100.2h57.9Zm147-210q-53.4,0-82.35,27.15t-28.95,79.65q0,52.5,28.95,79.65t82.35,27.15q53.394,0,82.5-27.3t29.1-79.5q0-52.2-29.1-79.5t-82.5-27.3h0Zm0,49.5q21.3,0,32.55,12.9t11.25,34.8v19.2q0,21.9-11.25,34.8t-32.55,12.9q-21.306,0-32.4-12.9t-11.1-34.8v-19.2q0-21.9,11.1-34.8t32.4-12.9h0Zm370.2,160.5,48.3-206.4h-66l-22.2,117h-1.2l-24.9-117h-65.4l-23.4,117h-1.2l-23.7-117h-69l48.3,206.4h72.9l26.7-125.7h1.2l26.7,125.7h72.9Z" transform="translate(-41.688 -28.469)"/>
</svg>
