<?xml version="1.0" standalone="no"?>
<!DOCTYPE svg PUBLIC "-//W3C//DTD SVG 20010904//EN"
 "http://www.w3.org/TR/2001/REC-SVG-20010904/DTD/svg10.dtd">
<svg version="1.0" xmlns="http://www.w3.org/2000/svg"
 width="1454.000000pt" height="859.000000pt" viewBox="0 0 1454.000000 859.000000"
 preserveAspectRatio="xMidYMid meet">

<g transform="translate(0.000000,859.000000) scale(0.100000,-0.100000)"
fill="#000000" stroke="none">
<path d="M4320 5781 c0 -1837 -4 -2852 -10 -2935 -40 -494 -213 -745 -578
-843 -89 -25 -113 -27 -297 -27 -184 0 -208 2 -297 27 -219 59 -373 177 -460
357 -80 164 -114 328 -125 613 l-6 167 -1275 0 -1275 0 6 -232 c16 -590 117
-1055 317 -1463 188 -381 447 -676 800 -910 317 -211 655 -354 1073 -455 352
-85 281 -81 1368 -78 l964 4 174 37 c606 132 1072 343 1440 653 l101 85 0
-391 0 -390 3008 0 c3239 0 3105 -2 3366 50 240 49 437 116 661 225 681 333
1120 920 1230 1645 22 146 30 436 16 610 -77 974 -546 1574 -1441 1844 -63 19
-132 37 -153 41 -35 7 -38 10 -35 37 3 27 9 31 119 68 682 228 1094 669 1254
1340 45 190 59 334 59 595 0 258 -9 343 -61 540 -143 550 -540 1028 -1080
1303 -339 173 -670 260 -1074 282 -106 6 -1669 10 -3981 10 l-3808 0 0 -2809z
m6750 905 c207 -68 370 -229 437 -429 26 -78 27 -92 28 -277 0 -221 -9 -273
-72 -400 -50 -100 -179 -232 -273 -277 -135 -66 -82 -63 -1192 -63 l-1008 0 0
735 0 736 1013 -3 c949 -3 1015 -5 1067 -22z m166 -3231 c96 -20 152 -45 231
-101 115 -82 209 -219 250 -365 14 -52 18 -102 18 -259 0 -221 -9 -273 -72
-400 -50 -100 -179 -232 -273 -277 -135 -66 -72 -63 -1292 -63 l-1108 0 0 740
0 740 1085 0 c940 0 1096 -2 1161 -15z"/>
</g>
</svg>
