<svg xmlns="http://www.w3.org/2000/svg" width="919.5" height="213.594" viewBox="0 0 919.5 213.594">
  <metadata><?xpacket begin="﻿" id="W5M0MpCehiHzreSzNTczkc9d"?>
<x:xmpmeta xmlns:x="adobe:ns:meta/" x:xmptk="Adobe XMP Core 5.6-c138 79.159824, 2016/09/14-01:09:01        ">
   <rdf:RDF xmlns:rdf="http://www.w3.org/1999/02/22-rdf-syntax-ns#">
      <rdf:Description rdf:about=""/>
   </rdf:RDF>
</x:xmpmeta>
                                                                                                    
                                                                                                    
                                                                                                    
                                                                                                    
                                                                                                    
                                                                                                    
                                                                                                    
                                                                                                    
                                                                                                    
                                                                                                    
                                                                                                    
                                                                                                    
                                                                                                    
                                                                                                    
                                                                                                    
                                                                                                    
                                                                                                    
                                                                                                    
                                                                                                    
                                                                                                    
                           
<?xpacket end="w"?></metadata>
<defs>
    <style>
      .cls-1 {
        fill: #fbf579;
        fill-rule: evenodd;
      }
    </style>
  </defs>
  <path id="DONT" class="cls-1" d="M131.085,32.071h-89.4v206.4h89.4q108.3,0,108.3-103.2t-108.3-103.2h0Zm-23.1,49.5h21.9q41.7,0,41.7,44.7v18q0,44.7-41.7,44.7h-21.9V81.571Zm269.7-53.1q-53.4,0-82.35,27.15t-28.95,79.65q0,52.5,28.95,79.65t82.35,27.15q53.4,0,82.5-27.3t29.1-79.5q0-52.2-29.1-79.5t-82.5-27.3h0Zm0,49.5q21.3,0,32.55,12.9t11.25,34.8v19.2q0,21.9-11.25,34.8t-32.55,12.9q-21.3,0-32.4-12.9t-11.1-34.8v-19.2q0-21.9,11.1-34.8t32.4-12.9h0Zm352.8,160.5V32.071h-60.9v101.7l-86.7-101.7h-57.9v206.4h60.9v-100.2l86.7,100.2h57.9Zm230.7-153.6v-52.8H759.58v52.8h67.8v153.6h66.3V84.871h67.5Z" transform="translate(-41.688 -28.469)"/>
</svg>
